# Blender v2.78 (sub 0) OBJ File: 'stage.blend'
# www.blender.org
mtllib example.mtl
o Cube
v -0.885000 1.776893 0.885104
v -0.885000 1.776893 -0.885104
v 0.885000 1.776893 -0.885104
v 0.885000 1.776893 0.885104
v -0.885000 0.006685 0.885104
v -0.884999 0.006685 -0.885105
v 0.885000 0.006685 -0.885104
v 0.885000 0.006685 0.885104
vt 0.6646 0.6637
vt 0.3313 0.6637
vt 0.3313 0.3304
vt 0.6646 0.3304
vt 0.6646 0.9970
vt 0.3313 0.9970
vt -0.0019 0.6637
vt -0.0019 0.3304
vt 0.3313 -0.0029
vt 0.6646 -0.0029
vn 0.0000 -1.0000 -0.0000
vn -1.0000 -0.0000 -0.0000
vn 0.0000 0.0000 -1.0000
vn 1.0000 0.0000 0.0000
usemtl Material.003
s off
f 5/1/1 6/2/1 7/3/1 8/4/1
f 1/5/2 2/6/2 6/2/2 5/1/2
f 2/7/3 3/8/3 7/3/3 6/2/3
f 3/9/4 4/10/4 8/4/4 7/3/4
